# xmcd
#
# Track frame offsets:
#	150
#	46270
#	65580
#	85404
#	112433
#	131639
#	155222
#	174360
#	199540
#	240276
#
# Disc length: 3516 seconds
#
# Revision: 4
# Processed by: cddbd v1.5.2PL0 Copyright (c) Steve Scherf et al.
# Submitted via: Jack! The Knife
#
DISCID=8a0dba0a
DTITLE=Stratovarius - Destiny
DYEAR=1998
DGENRE=Heavy Metal
TTITLE0=Destiny
TTITLE1=S.O.S.
TTITLE2=No Turning Back
TTITLE3=4000 Rainy Nights
TTITLE4=Rebel
TTITLE5=Years Go By
TTITLE6=Playing With Fire
TTITLE7=Venus In The Morning
TTITLE8=Anthem of the World
TTITLE9=Cold Winter Nights
EXTD=Heavy Metal
EXTT0=
EXTT1=
EXTT2=
EXTT3=
EXTT4=
EXTT5=
EXTT6=
EXTT7=
EXTT8=
EXTT9=
PLAYORDER=
